<?xml version="1.0" standalone="no"?>
<!DOCTYPE svg PUBLIC "-//W3C//DTD SVG 20010904//EN"
 "http://www.w3.org/TR/2001/REC-SVG-20010904/DTD/svg10.dtd">
<svg version="1.0" xmlns="http://www.w3.org/2000/svg"
 width="241.000000pt" height="100.000000pt" viewBox="0 0 241.000000 100.000000"
 preserveAspectRatio="xMidYMid meet">

<g transform="translate(0.000000,100.000000) scale(0.100000,-0.100000)"
fill="#000000" stroke="none">
<path d="M167 929 c-109 -119 -162 -267 -160 -444 1 -129 28 -231 90 -332 46
-75 115 -153 135 -153 23 0 68 39 68 59 0 10 -23 46 -50 80 -28 35 -58 77 -66
94 -104 200 -74 458 72 624 50 58 56 93 22 117 -37 26 -54 19 -111 -45z"/>
<path d="M2127 972 c-26 -29 -21 -50 27 -105 125 -142 167 -357 106 -536 -22
-67 -91 -182 -128 -215 -42 -37 -16 -106 39 -106 24 0 113 100 153 173 59 107
81 195 80 327 -1 96 -5 129 -27 195 -29 88 -73 168 -133 239 -30 37 -45 46
-70 46 -17 0 -38 -8 -47 -18z"/>
<path d="M1976 819 c-36 -28 -33 -48 14 -105 40 -49 64 -106 76 -180 12 -76
-36 -205 -95 -258 -28 -25 -27 -57 3 -85 48 -45 105 1 168 134 43 93 51 219
19 315 -33 97 -108 200 -147 200 -6 0 -23 -9 -38 -21z"/>
<path d="M343 793 c-20 -21 -52 -72 -72 -113 -34 -72 -36 -80 -36 -180 0 -79
5 -118 19 -156 24 -66 85 -155 119 -174 24 -13 28 -13 54 6 41 31 39 54 -6
110 -101 121 -101 304 0 417 45 52 48 75 16 105 -33 31 -54 27 -94 -15z"/>
<path d="M740 770 c-17 -5 3 -8 61 -9 72 -1 91 -4 114 -23 48 -38 55 -70 55
-273 0 -102 3 -185 7 -185 3 0 23 18 43 40 l37 40 79 1 c43 0 88 4 99 9 13 6
-16 9 -82 9 -103 1 -103 1 -103 26 0 25 1 25 80 25 l80 0 0 100 c0 128 -14
166 -65 176 -20 3 -38 4 -41 1 -3 -3 11 -26 30 -52 48 -62 50 -122 7 -166 -38
-37 -79 -38 -111 -4 -21 23 -25 39 -30 121 -5 92 -6 97 -35 120 -55 44 -160
65 -225 44z"/>
<path d="M1165 761 c89 -22 107 -58 113 -234 l4 -128 25 35 c29 44 51 45 89 5
55 -58 112 -84 184 -84 84 0 136 26 169 84 28 52 38 147 21 210 -12 44 -66
111 -90 111 -6 0 3 -12 21 -27 44 -37 59 -80 59 -166 0 -137 -55 -197 -181
-197 -52 0 -73 5 -100 23 -55 36 -71 82 -78 220 l-6 122 -23 -32 c-13 -18 -30
-33 -37 -33 -8 0 -35 18 -61 41 -51 44 -83 60 -117 58 -17 -1 -15 -3 8 -8z"/>
<path d="M1613 763 c9 -2 25 -2 35 0 9 3 1 5 -18 5 -19 0 -27 -2 -17 -5z"/>
<path d="M1472 624 c4 -151 15 -179 73 -190 59 -11 103 3 126 39 17 26 19 46
17 110 -3 72 -6 81 -31 103 -18 15 -41 24 -63 24 -27 0 -34 4 -34 19 0 15 -9
20 -46 23 l-46 3 4 -131z m126 40 c26 -18 52 -64 52 -92 0 -33 -38 -72 -70
-72 -55 0 -90 84 -59 143 21 40 42 46 77 21z"/>
<path d="M720 707 c0 -3 23 -13 50 -22 35 -11 59 -28 78 -53 26 -34 27 -42 33
-184 3 -81 8 -151 12 -155 4 -3 7 79 7 183 0 147 -3 194 -14 209 -11 16 -30
20 -90 23 -42 2 -76 2 -76 -1z"/>
<path d="M1826 679 c-33 -26 -33 -49 -1 -79 54 -51 55 -126 3 -186 -26 -29
-29 -39 -21 -57 6 -12 23 -29 37 -37 38 -20 70 0 109 68 40 72 41 154 3 229
-41 82 -81 101 -130 62z"/>
<path d="M494 665 c-68 -68 -85 -193 -39 -284 42 -85 91 -100 135 -44 19 24
19 28 5 47 -71 97 -73 132 -9 209 30 36 30 42 -1 72 -31 32 -59 32 -91 0z"/>
</g>
</svg>
